<?xml version="1.0" ?>
<!DOCTYPE svg  PUBLIC '-//W3C//DTD SVG 1.1//EN'  'http://www.w3.org/Graphics/SVG/1.1/DTD/svg11.dtd'>
<!-- Uploaded to: SVG Repo, www.svgrepo.com, Generator: SVG Repo Mixer Tools -->
<svg width="800px" height="800px" viewBox="0 0 512 512" stroke-miterlimit="10" style="fill-rule:nonzero;clip-rule:evenodd;stroke-linecap:round;stroke-linejoin:round;" version="1.1" xml:space="preserve" xmlns="http://www.w3.org/2000/svg" xmlns:vectornator="http://vectornator.io" xmlns:xlink="http://www.w3.org/1999/xlink">
<defs/>
<g id="Layer-3" opacity="0.957265" xmlns:vectornator="http://vectornator.io">
<path d="M312.438 31.0312C290.786 31.7406 270.392 41.1168 255.938 55.8125C255.17 56.5932 254.595 57.4218 253.875 58.2188L253.875 42.5938C253.875 38.6112 250.639 35.375 246.656 35.375C242.674 35.375 239.437 38.6112 239.438 42.5938L239.438 88.5C239.435 88.5611 239.408 88.6265 239.406 88.6875C239.4 88.8892 239.44 89.0804 239.438 89.2812L239.438 102.219C225.276 103.369 211.248 106.393 197.969 111.469C175.158 120.188 154.819 134.821 139.281 153.656C128.463 166.77 120.008 181.779 114.281 197.781C109.065 212.357 106.088 227.749 105.5 243.219C105.334 247.586 105.356 251.978 105.562 256.344C105.642 258.029 105.821 259.722 105.906 261.406C106.053 264.297 106.108 267.175 106.344 270.062C106.896 276.835 107.901 283.567 109.281 290.219C112.48 305.632 117.666 320.581 123.781 335.062C127.676 344.284 131.97 353.311 136.344 362.312C139.869 369.569 143.484 376.792 146.781 384.156C148.993 389.096 151.157 394.129 152.531 399.375C153.177 401.842 153.769 404.564 153.375 407.125C152.807 410.816 148.195 411.505 145.156 411.906C144.461 411.998 143.762 412.071 143.062 412.125C142.274 412.186 141.447 412.226 140.656 412.25C139.775 412.277 138.913 412.29 138.031 412.281C136.714 412.269 135.378 412.198 134.062 412.125C133.226 412.079 132.098 411.983 131.562 411.938C129.446 411.161 127.043 411.236 124.969 412.5C121.357 414.701 120.205 419.389 122.406 423C123.336 429.551 143.5 451.919 158.688 461.688C175.342 472.4 194.344 477.287 213.844 479.438C218.74 479.977 223.647 480.347 228.562 480.656C230.71 480.791 232.911 481.005 235.062 481C238.157 480.993 241.295 480.649 244.375 480.375C250.132 479.863 255.867 479.14 261.562 478.156C289.961 473.251 316.795 461.97 339.062 443.5C358.372 427.484 373.306 406.851 384.25 384.375C389.882 372.809 394.728 360.733 398.219 348.344C402.421 333.427 404.835 318.007 405.938 302.562C407.407 281.975 406.523 261.19 403 240.844C397.279 207.808 384.142 175.507 361.344 150.531C356 144.677 350.175 139.267 343.938 134.375C326.683 120.842 306.424 111.589 285.219 106.219C284.836 106.122 284.446 106.063 284.062 105.969C293.923 102.024 303.435 95.6823 311.75 87.3125C329.45 69.4957 337.278 47.5356 326.875 34.0625C325.638 32.4601 323.799 31.4494 321.781 31.2812C318.651 31.0204 315.531 30.9299 312.438 31.0312ZM312.875 45.4688C314.155 45.426 315.462 45.5307 316.75 45.5625C318.608 52.6374 313.073 65.5697 301.531 77.1875C287.465 91.3466 269.887 98.4185 255.219 95.0625C251.775 88.3808 255.498 76.8065 266.219 65.9062C278.131 53.7945 295.024 46.0644 312.875 45.4688ZM252.438 116.406C255.624 116.407 258.856 116.395 262.031 116.688C264.087 116.877 266.186 117.33 268.219 117.688C272.033 118.358 275.83 119.149 279.594 120.062C295.653 123.962 311.198 130.186 325.094 139.188C331.649 143.434 337.789 148.263 343.469 153.625C367.666 176.472 381.564 207.952 387.625 240.281C391.399 260.41 392.321 281.055 390.844 301.469C389.8 315.888 387.594 330.326 383.656 344.25C380.399 355.767 375.841 367.001 370.594 377.75C360.294 398.85 346.198 418.204 327.844 433C307.92 449.061 284.085 458.795 258.969 463.125C253.686 464.036 248.37 464.683 243.031 465.156C241.052 465.332 239.077 465.505 237.094 465.625C236.409 465.667 235.717 465.717 235.031 465.719C232.816 465.725 230.555 465.484 228.344 465.344C224.067 465.073 219.791 464.752 215.531 464.281C198.477 462.395 181.542 458.193 166.969 448.812C155.829 441.643 143.262 428.436 145.594 426.344C152.649 425.627 159.656 423.618 164.031 418.031C164.857 416.977 165.558 415.807 166.125 414.594C166.895 412.947 167.431 411.2 167.719 409.406C168.119 406.912 168.045 404.346 167.75 401.844C167.245 397.562 166.007 393.393 164.562 389.344C162.997 384.955 161.153 380.675 159.219 376.438C153.762 364.482 147.731 352.821 142.25 340.875C134.355 323.668 127.347 305.84 123.5 287.25C122.244 281.183 121.344 275.052 120.844 268.875C120.622 266.135 120.576 263.399 120.438 260.656C120.273 257.399 120.01 254.17 119.969 250.906C119.463 211.284 136.288 172.267 166.719 146.625C173.875 140.594 181.718 135.36 190.031 131.062C202.084 124.832 215.154 120.602 228.531 118.375C236.436 117.059 244.424 116.405 252.438 116.406ZM227.125 134.219C226.14 134.078 225.085 134.105 224.062 134.375C213.69 137.132 203.691 141.011 194.375 146.375C173.421 158.441 156.796 177.171 146.594 199.031C142.304 208.224 139.293 217.888 137.25 227.812C136.44 231.734 138.954 235.565 142.875 236.375C146.796 237.185 150.628 234.671 151.438 230.75C153.263 221.939 155.96 213.364 159.812 205.219C168.838 186.138 183.623 170.057 201.969 159.594C210.151 154.927 218.874 151.61 227.969 149.219C232.058 148.138 234.487 143.901 233.406 139.812C232.596 136.746 230.079 134.64 227.125 134.219Z" fill="#000000" fill-rule="evenodd" opacity="1" stroke="none" xmlns:vectornator="http://vectornator.io"/>
</g>
</svg>